<?xml version="1.0" encoding="UTF-8"?>
<svg id="Ebene_1" data-name="Ebene 1" xmlns="http://www.w3.org/2000/svg" xmlns:xlink="http://www.w3.org/1999/xlink" viewBox="0 0 185.55 52.66">
  <defs>
    <style>
      .cls-1 {
        fill: url(#Unbenannter_Verlauf_130-2);
      }

      .cls-2 {
        fill: url(#Unbenannter_Verlauf_236-2);
      }

      .cls-3 {
        fill: url(#Unbenannter_Verlauf_225-2);
      }

      .cls-4 {
        fill: #5d9bd4;
      }

      .cls-5 {
        fill: #e3e8f0;
      }

      .cls-6 {
        fill: #1e3e88;
      }

      .cls-7 {
        fill: #6e809a;
      }

      .cls-8 {
        fill: url(#Unbenannter_Verlauf_225);
      }

      .cls-9 {
        fill: url(#Unbenannter_Verlauf_236);
      }

      .cls-10 {
        fill: url(#Unbenannter_Verlauf_130);
      }

      .cls-11 {
        fill: url(#Unbenannter_Verlauf_170);
      }

      .cls-12 {
        fill: url(#Unbenannter_Verlauf_161);
      }

      .cls-13 {
        fill: url(#Unbenannter_Verlauf_183);
      }

      .cls-14 {
        fill: #b06ba9;
      }

      .cls-15 {
        fill: #826415;
      }

      .cls-16 {
        fill: #e2aa11;
      }

      .cls-17 {
        fill: #893089;
      }
    </style>
    <linearGradient id="Unbenannter_Verlauf_161" data-name="Unbenannter Verlauf 161" x1="8.31" y1="8.31" x2="18.06" y2="18.06" gradientTransform="translate(13.19 -5.46) rotate(45)" gradientUnits="userSpaceOnUse">
      <stop offset="0" stop-color="#f3db78"/>
      <stop offset=".19" stop-color="#f4e188"/>
      <stop offset=".34" stop-color="#f4e38d"/>
      <stop offset=".38" stop-color="#f4df81"/>
      <stop offset=".47" stop-color="#f5d86f"/>
      <stop offset=".57" stop-color="#f5d463"/>
      <stop offset=".67" stop-color="#f6d360"/>
      <stop offset=".89" stop-color="#f1cc53"/>
      <stop offset="1" stop-color="#efbe33"/>
    </linearGradient>
    <linearGradient id="Unbenannter_Verlauf_130" data-name="Unbenannter Verlauf 130" x1=".41" y1="15.42" x2="10.95" y2="25.97" gradientTransform="translate(-4.94 39.35) rotate(-135)" gradientUnits="userSpaceOnUse">
      <stop offset=".18" stop-color="#e2aa11"/>
      <stop offset=".91" stop-color="#826415"/>
    </linearGradient>
    <linearGradient id="Unbenannter_Verlauf_130-2" data-name="Unbenannter Verlauf 130" x1="15.42" y1=".41" x2="25.97" y2="10.95" gradientTransform="translate(31.32 24.33) rotate(-135)" xlink:href="#Unbenannter_Verlauf_130"/>
    <linearGradient id="Unbenannter_Verlauf_170" data-name="Unbenannter Verlauf 170" x1="34.88" y1="15.61" x2="42.24" y2="22.97" gradientUnits="userSpaceOnUse">
      <stop offset="0" stop-color="#deb0d3"/>
      <stop offset=".15" stop-color="#e1b5d6"/>
      <stop offset=".3" stop-color="#e3b8d7"/>
      <stop offset=".4" stop-color="#d7a8cd"/>
      <stop offset=".53" stop-color="#cf9cc7"/>
      <stop offset=".67" stop-color="#cd99c5"/>
      <stop offset=".89" stop-color="#c68abc"/>
      <stop offset="1" stop-color="#bb7db4"/>
    </linearGradient>
    <linearGradient id="Unbenannter_Verlauf_225" data-name="Unbenannter Verlauf 225" x1="28.7" y1="20.09" x2="36.78" y2="28.17" gradientTransform="translate(.63 .63) rotate(-.12) skewX(-.25)" gradientUnits="userSpaceOnUse">
      <stop offset=".19" stop-color="#b06ba9"/>
      <stop offset=".87" stop-color="#893089"/>
    </linearGradient>
    <linearGradient id="Unbenannter_Verlauf_225-2" data-name="Unbenannter Verlauf 225" x1="39.35" y1="9.41" x2="47.43" y2="17.49" xlink:href="#Unbenannter_Verlauf_225"/>
    <linearGradient id="Unbenannter_Verlauf_183" data-name="Unbenannter Verlauf 183" x1="34.79" y1="39.35" x2="42.18" y2="46.74" gradientTransform="translate(41.71 -14.61) rotate(45)" gradientUnits="userSpaceOnUse">
      <stop offset="0" stop-color="#91c4eb"/>
      <stop offset=".2" stop-color="#9dc9ed"/>
      <stop offset=".33" stop-color="#96c6ec"/>
      <stop offset=".35" stop-color="#91c3ea"/>
      <stop offset=".45" stop-color="#7fb8e5"/>
      <stop offset=".56" stop-color="#73b2e2"/>
      <stop offset=".67" stop-color="#70b0e1"/>
      <stop offset=".89" stop-color="#60a7dc"/>
      <stop offset="1" stop-color="#4d9bd5"/>
    </linearGradient>
    <linearGradient id="Unbenannter_Verlauf_236" data-name="Unbenannter Verlauf 236" x1="28.76" y1="43.79" x2="36.83" y2="51.86" gradientTransform="translate(22.62 105.05) rotate(-135.12) skewX(-.25)" gradientUnits="userSpaceOnUse">
      <stop offset=".19" stop-color="#5d9bd4"/>
      <stop offset=".87" stop-color="#1e3e88"/>
    </linearGradient>
    <linearGradient id="Unbenannter_Verlauf_236-2" data-name="Unbenannter Verlauf 236" x1="39.41" y1="33.15" x2="47.47" y2="41.21" gradientTransform="translate(48.33 94.4) rotate(-135.12) skewX(-.25)" xlink:href="#Unbenannter_Verlauf_236"/>
  </defs>
  <g>
    <rect class="cls-7" x="22.43" y="16.81" width="1.75" height="25.04"/>
    <rect class="cls-7" x="17.04" y="16.81" width="19.66" height="1.82"/>
    <rect class="cls-7" x="22.43" y="40.09" width="11.87" height="1.75"/>
    <g>
      <rect class="cls-12" x="2.56" y="6.29" width="21.26" height="13.79" transform="translate(-5.46 13.19) rotate(-45)"/>
      <rect class="cls-15" x="17.48" y="6.87" width="1.15" height="22.38" transform="translate(18.06 -7.47) rotate(45)"/>
      <g>
        <rect class="cls-16" x="7.74" y="-2.87" width="1.15" height="22.38" transform="translate(8.32 -3.45) rotate(45)"/>
        <rect class="cls-10" x="5.1" y="13.24" width="1.15" height="14.92" transform="translate(24.33 31.32) rotate(135)"/>
        <rect class="cls-1" x="20.12" y="-1.78" width="1.15" height="14.92" transform="translate(39.35 -4.94) rotate(135)"/>
      </g>
    </g>
    <g>
      <polygon class="cls-11" points="40.23 10.26 29.56 20.96 36.89 28.31 47.56 17.61 40.23 10.26"/>
      <polygon class="cls-17" points="36.91 29.03 36.2 28.31 47.56 16.92 48.27 17.63 36.91 29.03"/>
      <polygon class="cls-14" points="29.59 21.68 28.88 20.97 40.24 9.57 40.95 10.29 29.59 21.68"/>
      <polygon class="cls-8" points="28.88 20.97 29.59 20.25 37.62 28.31 36.91 29.02 28.88 20.97"/>
      <polygon class="cls-3" points="39.53 10.29 40.24 9.57 48.27 17.63 47.56 18.34 39.53 10.29"/>
    </g>
    <g>
      <rect class="cls-13" x="30.88" y="37.82" width="15.22" height="10.45" transform="translate(-19.17 39.82) rotate(-45)"/>
      <g>
        <rect class="cls-9" x="32.75" y="42.61" width="1.01" height="11.36" transform="translate(90.91 58.91) rotate(135)"/>
        <rect class="cls-2" x="43.4" y="31.96" width="1.01" height="11.36" transform="translate(101.56 33.21) rotate(135)"/>
        <rect class="cls-6" x="41.73" y="38.59" width="1.01" height="16.06" transform="translate(45.34 -16.21) rotate(45)"/>
        <rect class="cls-4" x="34.41" y="31.27" width="1.01" height="16.06" transform="translate(38.02 -13.18) rotate(45)"/>
      </g>
    </g>
  </g>
  <g>
    <path class="cls-5" d="M53.53,30.44v11.43h-2.56v-25.07h9.34c5.03,0,7.7,2.71,7.7,6.63,0,3.21-1.88,5.24-4.5,5.87,2.33.58,4.08,2.19,4.08,6.49v1.01c0,1.74-.11,4.06.33,5.06h-2.54c-.46-1.08-.39-3.09-.39-5.33v-.59c0-3.87-1.12-5.51-5.78-5.51h-5.68ZM53.53,28.19h5.77c4.14,0,6.02-1.55,6.02-4.63,0-2.89-1.88-4.53-5.55-4.53h-6.24v9.16Z"/>
    <path class="cls-5" d="M86.34,29.8h-12.62v9.77h13.84l-.35,2.3h-16.02v-25.06h15.77v2.26h-13.25v8.47h12.62v2.26Z"/>
    <path class="cls-5" d="M108.85,34.96c-1.15,4.09-4.19,7.17-9.65,7.17-7.32,0-11.11-5.7-11.11-12.76s3.75-12.93,11.18-12.93c5.63,0,8.82,3.17,9.6,7.35h-2.56c-1.03-3.02-3-5.12-7.16-5.12-5.91,0-8.36,5.39-8.36,10.63s2.38,10.6,8.5,10.6c3.98,0,5.88-2.16,6.99-4.94h2.56Z"/>
    <path class="cls-5" d="M111.34,16.8h2.56v22.77h13.27l-.4,2.26h-15.42v-25.03Z"/>
    <path class="cls-5" d="M132.69,33.69l-2.96,8.14h-2.57l9.07-25.03h3.1l9.45,25.03h-2.75l-3.04-8.14h-10.3ZM142.25,31.43c-2.61-7.05-3.98-10.59-4.5-12.37h-.04c-.61,2-2.15,6.34-4.26,12.37h8.8Z"/>
    <path class="cls-5" d="M151.31,34.99c.72,3.18,2.86,4.99,6.75,4.99,4.27,0,5.93-2.08,5.93-4.64,0-2.68-1.24-4.28-6.53-5.57-5.57-1.37-7.75-3.23-7.75-6.8s2.55-6.54,8.02-6.54,8.09,3.4,8.42,6.55h-2.62c-.52-2.48-2.11-4.36-5.91-4.36-3.36,0-5.21,1.54-5.21,4.15s1.54,3.58,6.05,4.69c7.09,1.75,8.22,4.55,8.22,7.65,0,3.84-2.82,7.02-8.76,7.02-6.27,0-8.75-3.55-9.24-7.13h2.62Z"/>
    <path class="cls-5" d="M170.17,34.99c.72,3.18,2.86,4.99,6.75,4.99,4.27,0,5.93-2.08,5.93-4.64,0-2.68-1.24-4.28-6.53-5.57-5.57-1.37-7.75-3.23-7.75-6.8s2.55-6.54,8.02-6.54,8.09,3.4,8.42,6.55h-2.62c-.52-2.48-2.11-4.36-5.91-4.36-3.36,0-5.21,1.54-5.21,4.15s1.54,3.58,6.05,4.69c7.09,1.75,8.22,4.55,8.22,7.65,0,3.84-2.82,7.02-8.76,7.02-6.27,0-8.75-3.55-9.24-7.13h2.62Z"/>
  </g>
</svg>